<?xml version="1.0" encoding="UTF-8" standalone="no"?>
<!DOCTYPE svg PUBLIC "-//W3C//DTD SVG 1.1//EN" "http://www.w3.org/Graphics/SVG/1.1/DTD/svg11.dtd">
<svg height="100%" stroke-miterlimit="10"
  style="fill-rule:nonzero;clip-rule:evenodd;stroke-linecap:round;stroke-linejoin:round;"
  version="1.1" viewBox="0 0 1024 1024" width="100%" xml:space="preserve"
  xmlns="http://www.w3.org/2000/svg"
  xmlns:xlink="http://www.w3.org/1999/xlink">
<rect height="1024" width="1024" x="0" y="0"/>
<path d="M-280.646-291.977L1304.65-291.977L1304.65 1315.98L-280.646 1315.98L-280.646-291.977Z" fill="#f0efe3" fill-rule="evenodd" opacity="1" stroke="none"/>
<path d="M587.044 411.821C595.654 416.126 611.438 424.736 634.398 437.65C644.442 443.39 652.335 447.695 658.075 450.565C660.732 454.04 659.97 458.668 653.77 461.327C640.788 466.894 591.657 480.735 563.414 494.167C553.686 499.771 549.018 502.941 546.148 504.376C547.583 504.376 551.156 507.064 552.733 508.392C554.814 510.282 555.475 512.268 552.605 515.138C552.605 515.138 541.843 526.056 541.843 530.205C541.843 534.354 541.843 567.295 541.843 567.295L647.711 567.295C666.509 546.337 680.751 536.283 695.1 523.368C698.729 520.149 701.293 518.814 705.598 521.684C731.427 538.903 752.782 555.317 770.001 571.102C774.306 576.841 772.871 580.429 765.697 581.864L541.843 581.864C541.843 581.864 541.843 634.495 541.843 676.571C541.843 708.364 542.501 726.535 542.478 737.766C542.471 741.398 539.798 750.493 538.401 752.212C527.459 765.672 508.202 772.159 475.117 773.431C472.247 773.431 469.377 771.996 466.507 769.126C440.53 747.447 434.497 741.009 397.629 719.62C394.759 716.75 395.477 714.598 399.782 713.163C439.364 719.547 463.664 720.409 474.508 712.668C478.233 710.008 478.456 706.798 479.422 701.706C479.524 669.284 479.422 581.864 479.422 581.864L302.922 581.864C292.227 581.864 276.719 584.817 274.706 585.102C272.693 585.386 267.633 582.939 266.281 581.305C263.979 578.524 261.259 575.459 259.163 571.738C258.113 569.873 258.677 564.934 263.956 565.668C269.235 566.402 279.962 567.295 292.304 567.295C308.573 567.295 479.422 567.295 479.422 567.295L478.873 536.639C478.873 530.899 478.704 523.03 477.269 512.986C475.835 501.506 475.619 493.005 475.117 489.309C474.826 487.167 478.307 485.517 479.865 485.796C498.52 490.101 516.013 494.331 537.538 500.071C540.408 492.896 543.093 475.77 553.299 449.739L396.199 451.289C385.621 451.289 376.977 452.318 365.201 453.726C362.718 454.023 358.147 452.437 356.966 451.193C354.438 448.531 350.371 442.201 349.86 441.342C348.403 438.889 349.694 433.654 353.8 434.214C362.425 435.389 374.332 435.973 378.427 436.017C384.247 436.08 558.153 436.378 558.153 436.378C563.892 426.333 576.999 411.821 578.434 411.821C581.304 410.386 584.174 410.386 587.044 411.821Z" fill="#370707" fill-rule="evenodd" opacity="0" stroke="none"/>
<path d="M704.363 326.05C729.154 337.394 762.796 358.402 776.459 368.772C779.679 371.248 777.119 375.31 774.437 376.317C771.567 377.752 741.474 386.546 734.599 389.474C726.381 392.613 712.554 399.118 691.945 409.857C682.023 415.068 678.774 417.514 673.15 420.41C671.829 421.09 666.556 424.112 664.532 424.736C659.782 425.828 659.51 423.089 659.295 420.431C659.65 408.201 661.096 400.895 665.077 387.599L671.19 367.535C671.19 367.535 535.482 367.533 449.389 367.533C363.295 367.532 328.813 368.951 328.813 368.951C333.118 406.26 324.446 428.323 307.227 444.108C290.007 457.022 273.505 457.022 257.72 444.108C244.806 429.758 244.025 413.586 254.07 396.367C259.559 389.352 261.308 389.579 268.483 383.839C288.764 364.521 297.58 325.684 298.826 320.756C300.538 313.98 302.342 314.97 305.841 318.02C309.34 321.07 321.19 337.84 325.366 351.761C325.366 351.761 361.467 353.705 449.597 353.705C537.728 353.705 676.969 353.705 676.969 353.705C681.749 344.897 686.727 337.653 695.337 327.608C697.582 325.361 700.937 324.293 704.363 326.05Z" fill="#370707" fill-rule="evenodd" opacity="0" stroke="none"/>
<path d="M481.931 374.265C481.931 374.265 479.617 374.224 478.921 370.451C478.718 348.957 478.208 287.16 478.208 287.16C478.208 282.856 477.11 277.424 475.729 267.929C473.99 259.613 473.142 255.851 473.192 253.035C473.235 250.638 475.252 250.572 475.921 250.578C510.259 250.889 535.283 259.11 554.878 267.988C557.308 269.09 558.453 271.507 555.669 274.522C551.648 278.877 549.408 282.461 546.907 286.801C544.597 290.809 542.969 294.296 542.969 305.928C542.969 316.799 543.501 375.847 543.501 380.212C543.501 384.576 542.521 384.778 540.478 384.392" fill="#991919" fill-rule="evenodd" opacity="0" stroke="none"/>
<path d="M-260.646-271.977L1324.65-271.977L1324.65 1335.98L-260.646 1335.98L-260.646-271.977Z" fill="#f0efe3" fill-rule="evenodd" opacity="0" stroke="none"/>
<path d="M620.503 366.013C633.049 372.286 656.051 384.833 689.507 403.652C704.144 412.016 715.644 418.289 724.009 422.471C727.881 427.534 726.771 434.279 717.735 438.153C698.819 446.265 627.225 466.435 586.07 486.008C571.894 494.173 565.091 498.793 560.909 500.884C563 500.884 568.207 504.801 570.506 506.736C573.538 509.49 574.501 512.384 570.319 516.566C570.319 516.566 554.636 532.476 554.636 538.522C554.636 544.568 554.636 592.569 554.636 592.569L708.907 592.569C736.299 562.029 757.052 547.378 777.962 528.559C783.25 523.869 786.986 521.923 793.259 526.105C830.897 551.197 862.015 575.115 887.108 598.116C893.381 606.48 891.29 611.708 880.835 613.799L554.636 613.799C554.636 613.799 554.636 690.492 554.636 751.805C554.636 798.134 555.595 824.612 555.562 840.978C555.551 846.271 551.657 859.524 549.621 862.029C533.677 881.643 505.615 891.095 457.404 892.949C453.222 892.949 449.04 890.858 444.858 886.676C407.004 855.085 398.214 845.703 344.49 814.536C340.307 810.354 341.353 807.217 347.626 805.126C405.305 814.429 440.715 815.685 456.517 804.405C461.945 800.53 462.27 795.852 463.677 788.432C463.826 741.187 463.677 613.799 463.677 613.799L206.483 613.799C190.899 613.799 168.3 618.103 165.367 618.517C162.433 618.931 155.061 615.365 153.09 612.984C149.735 608.932 145.772 604.466 142.718 599.043C141.187 596.325 142.01 589.128 149.703 590.198C157.395 591.268 173.027 592.569 191.01 592.569C214.718 592.569 463.677 592.569 463.677 592.569L462.877 547.897C462.877 539.533 462.632 528.067 460.541 513.43C458.45 496.702 458.135 484.314 457.404 478.928C456.981 475.808 462.053 473.403 464.323 473.81C491.506 480.083 516.998 486.247 548.363 494.611C552.545 484.156 556.458 459.199 571.33 421.267L342.405 423.526C326.991 423.526 314.395 425.025 297.236 427.077C293.618 427.509 286.957 425.198 285.236 423.386C281.552 419.507 275.625 410.283 274.881 409.031C272.757 405.457 274.639 397.829 280.622 398.644C293.191 400.356 310.541 401.207 316.509 401.272C324.989 401.364 578.403 401.798 578.403 401.798C586.767 387.161 605.866 366.013 607.957 366.013C612.139 363.922 616.321 363.922 620.503 366.013Z" fill="#370707" fill-rule="evenodd" opacity="1" stroke="none"/>
<path d="M791.46 241.028C827.585 257.56 876.607 288.171 896.517 303.283C901.21 306.891 897.48 312.81 893.571 314.278C889.389 316.369 845.537 329.183 835.52 333.45C823.544 338.024 803.396 347.502 773.364 363.152C758.906 370.745 754.172 374.31 745.976 378.529C744.051 379.52 736.368 383.924 733.418 384.833C726.496 386.424 726.101 382.433 725.787 378.559C726.304 360.738 728.411 350.092 734.213 330.717L743.12 301.48C743.12 301.48 545.368 301.478 419.913 301.477C294.458 301.476 244.211 303.543 244.211 303.543C250.484 357.91 237.848 390.06 212.756 413.061C187.663 431.88 163.617 431.88 140.616 413.061C121.797 392.151 120.659 368.586 135.296 343.494C143.295 333.271 145.843 333.603 156.298 325.239C185.852 297.088 198.698 240.496 200.514 233.314C203.01 223.441 205.637 224.883 210.736 229.328C215.835 233.772 233.102 258.209 239.188 278.494C239.188 278.494 291.794 281.327 420.217 281.327C548.641 281.327 751.542 281.327 751.542 281.327C758.507 268.492 765.761 257.936 778.307 243.299C781.578 240.025 786.467 238.468 791.46 241.028Z" fill="#370707" fill-rule="evenodd" opacity="1" stroke="none"/>
<path d="M467.333 311.286C467.333 311.286 463.962 311.227 462.948 305.729C462.652 274.409 461.908 184.359 461.908 184.359C461.908 178.086 460.308 170.171 458.296 156.336C455.762 144.217 454.526 138.735 454.599 134.631C454.662 131.138 457.601 131.043 458.576 131.052C508.613 131.505 545.078 143.483 573.631 156.422C577.172 158.026 578.841 161.549 574.785 165.942C568.925 172.289 565.66 177.511 562.015 183.836C558.65 189.676 556.278 194.757 556.278 211.707C556.278 227.548 557.052 313.593 557.052 319.953C557.052 326.313 555.625 326.607 552.648 326.044" fill="#991919" fill-rule="evenodd" opacity="1" stroke="none"/>
</svg>